<svg width="105" height="34" viewBox="0 0 105 34" fill="none" xmlns="http://www.w3.org/2000/svg">
<path d="M6.89781 20.1289H5.43387C4.5921 20.1289 4.02483 19.708 3.67714 18.8479C3.42095 19.2505 2.90857 19.4701 2.1949 19.4701C0.950552 19.4701 0.145386 18.3905 0.145386 16.9448C0.145386 15.3894 0.932253 14.3829 2.3047 14.3829C2.3047 14.3646 3.23796 14.3646 5.08618 14.3646V17.6402C5.08618 18.3356 5.43387 18.7016 6.14754 18.7016H6.89781V20.1289ZM2.61578 13.4131H1.31654V12.2053H2.61578V13.4131ZM3.58564 16.835V15.4626H2.63408C2.04851 15.4626 1.60933 16.1214 1.60933 16.9265C1.60933 17.6585 2.03021 18.2624 2.61578 18.2624C3.21966 18.2624 3.58564 17.6951 3.58564 16.835ZM4.5738 13.4131H3.27456V12.2053H4.5738V13.4131Z" fill="#212951"/>
<path d="M8.85568 20.1285H6.62317V18.7378H8.85568V20.1285Z" fill="#212951"/>
<path d="M9.75335 21.8673H8.4541V20.6596H9.75335V21.8673ZM13.3949 20.1289H8.71029V18.7382H9.66185C10.1559 18.7382 10.3938 18.4088 10.3938 17.7317V15.4077H11.8578V17.6768C11.8578 18.0611 11.8029 18.4088 11.6931 18.7382H13.3949V20.1289ZM11.7114 21.8673H10.4121V20.6596H11.7114V21.8673Z" fill="#212951"/>
<path d="M20.3115 20.1287H18.6462C18.2254 20.7143 17.5666 21.0254 16.7065 21.0254C15.8282 21.0254 15.1694 20.7143 14.7302 20.1287H13.1199V18.738H14.291C14.291 17.2375 15.1511 16.3042 16.6516 16.3042C18.1705 16.3042 19.0854 17.2192 19.0854 18.738H20.3115V20.1287ZM17.6398 18.7014C17.6398 17.8779 17.3287 17.4571 16.7065 17.4571H16.5967C16.0661 17.4571 15.7184 17.9511 15.7184 18.6282C15.7184 19.3236 16.0661 19.8177 16.6882 19.8177C17.2738 19.836 17.6398 19.3968 17.6398 18.7014Z" fill="#212951"/>
<path d="M26.1121 17.7499C26.1121 18.4636 25.8925 19.0308 25.4533 19.47C25.0324 19.9092 24.4468 20.1288 23.7149 20.1288H19.9818V18.7381H21.4641C21.3543 18.427 21.2994 18.1159 21.2994 17.7682C21.2994 16.3226 22.2143 15.4076 23.66 15.4076C24.3919 15.4076 24.9775 15.6089 25.435 16.0298C25.8925 16.4324 26.1121 17.0179 26.1121 17.7499ZM23.3123 14.6207H22.013V13.4313H23.3123V14.6207ZM24.6664 17.8048C24.6664 16.9813 24.3553 16.5787 23.7332 16.5787H23.6234C23.3306 16.5787 23.111 16.7068 22.928 16.963C22.7999 17.1826 22.7267 17.4571 22.7267 17.7499C22.7267 18.0976 22.7999 18.3721 22.9646 18.5917C23.1476 18.8479 23.3855 18.9759 23.7149 18.9759C24.0259 18.9759 24.2638 18.8662 24.4285 18.6283C24.5932 18.3721 24.6664 18.1159 24.6664 17.8048ZM25.2703 14.6207H23.971V13.4313H25.2703V14.6207Z" fill="#212951"/>
<path d="M31.3823 20.1289H29.7719C29.534 21.2818 28.6008 21.849 26.9355 21.849V20.6779C27.8871 20.6779 28.3812 20.2204 28.3812 19.3055V15.4077H29.8451V18.7382H31.3823V20.1289Z" fill="#212951"/>
<path d="M34.11 18.1164C34.11 18.6653 33.9453 19.1228 33.6526 19.4888C33.3049 19.9097 32.8291 20.1293 32.2069 20.1293H30.8345V18.7385H31.9141C32.4082 18.7385 32.6461 18.3908 32.6461 17.7138V13.4135H34.11V18.1164Z" fill="#212951"/>
<path d="M36.5787 20.1293H35.1147V13.4135H36.5787V20.1293Z" fill="#212951"/>
<path d="M47.8155 20.1291H47.7423C46.9005 20.1291 46.2784 19.9278 45.8575 19.5069C45.5281 20.916 44.0459 21.8492 42.3623 21.8492C40.2762 21.8492 38.6293 20.3121 38.6293 18.2992V17.0548H40.0932V18.1711C40.0932 19.5618 40.9167 20.5134 42.3989 20.5134C43.5335 20.5134 44.5948 19.7997 44.5948 18.8298C44.5948 18.2809 44.119 17.9149 43.625 17.9149C43.5335 17.9149 43.4603 17.9332 43.3688 17.9515V16.6888C43.3688 16.6705 43.5701 16.6705 44.0093 16.6705C45.0706 16.6705 45.8392 17.1463 46.3516 18.1162C46.6077 18.592 46.9737 18.7566 47.5959 18.7566H47.8338V20.1291H47.8155ZM42.1976 24.0268H40.8984V22.8374H42.1976V24.0268ZM44.1556 24.0268H42.8564V22.8374H44.1556V24.0268Z" fill="#212951"/>
<path d="M49.9216 20.1285H47.6891V18.7378H49.9216V20.1285Z" fill="#212951"/>
<path d="M51.9865 20.1285H49.754V18.7378H51.9865V20.1285Z" fill="#212951"/>
<path d="M54.0388 20.1285H51.8063V18.7378H54.0388V20.1285Z" fill="#212951"/>
<path d="M56.1037 20.1285H53.8712V18.7378H56.1037V20.1285Z" fill="#212951"/>
<path d="M58.1718 20.1285H55.9393V18.7378H58.1718V20.1285Z" fill="#212951"/>
<path d="M60.2398 20.1285H58.0073V18.7378H60.2398V20.1285Z" fill="#212951"/>
<path d="M62.289 20.1285H60.0565V18.7378H62.289V20.1285Z" fill="#212951"/>
<path d="M64.357 20.1285H62.1245V18.7378H64.357V20.1285Z" fill="#212951"/>
<path d="M66.4253 20.1285H64.1927V18.7378H66.4253V20.1285Z" fill="#212951"/>
<path d="M69.3709 18.116C69.3709 18.665 69.2062 19.1225 68.9134 19.4884C68.5657 19.9093 68.0899 20.1289 67.4861 20.1289H66.2417V18.7382H67.175C67.669 18.7382 67.9069 18.3905 67.9069 17.7134V15.4077H69.3709V18.116ZM69.2977 21.8673H67.9984V20.6596H69.2977V21.8673Z" fill="#212951"/>
<path d="M75.5386 20.1289H70.3051V18.7382H74.093C74.093 17.2742 73.3061 16.6338 71.4396 16.6338V15.4077C72.3546 15.4077 72.995 15.4626 73.3793 15.609C74.7884 16.1031 75.5386 17.1461 75.5386 18.7199V20.1289Z" fill="#212951"/>
<path d="M0.145386 26.754H2.92687C3.47585 26.754 3.98823 26.8455 4.46401 27.0285C4.92149 27.2115 5.32407 27.4494 5.67176 27.7788C6.00114 28.0899 6.27563 28.4742 6.45862 28.895C6.64162 29.3342 6.73311 29.7917 6.73311 30.2858V30.3041C6.73311 30.7982 6.64162 31.2739 6.45862 31.7131C6.27563 32.1523 6.01944 32.5183 5.67176 32.8477C5.34237 33.1588 4.93979 33.415 4.46401 33.5979C4.00653 33.7809 3.49415 33.8724 2.92687 33.8724H0.145386V26.754ZM2.92687 32.4451C3.23796 32.4451 3.53075 32.3902 3.80523 32.2987C4.06142 32.1889 4.29931 32.0425 4.48231 31.8595C4.6653 31.6765 4.81169 31.4386 4.92149 31.1824C5.03128 30.9263 5.08618 30.6335 5.08618 30.3224V30.3041C5.08618 29.993 5.03128 29.7002 4.92149 29.444C4.81169 29.1878 4.6653 28.9499 4.48231 28.7669C4.29931 28.584 4.06142 28.4376 3.80523 28.3278C3.54905 28.218 3.25626 28.1631 2.92687 28.1631H1.71912V32.4634H2.92687V32.4451Z" fill="#212951"/>
<path d="M7.84851 26.754H9.42225V33.8724H7.84851V26.754Z" fill="#212951"/>
<path d="M14.3074 33.9824C13.7584 33.9824 13.246 33.8909 12.7885 33.7079C12.3311 33.5249 11.9285 33.2687 11.6174 32.9393C11.288 32.61 11.0318 32.2257 10.8488 31.7865C10.6658 31.3473 10.5743 30.8532 10.5743 30.3225V30.3042C10.5743 29.7919 10.6658 29.3161 10.8488 28.8769C11.0318 28.4377 11.288 28.0351 11.6357 27.7058C11.9651 27.3764 12.3677 27.1019 12.8068 26.9189C13.2643 26.7176 13.7584 26.6261 14.3074 26.6261C14.6185 26.6261 14.9113 26.6444 15.1858 26.6993C15.4419 26.7359 15.6981 26.8091 15.9177 26.8823C16.1373 26.9555 16.3569 27.0653 16.5399 27.1934C16.7412 27.3215 16.9242 27.4496 17.1072 27.6143L16.119 28.8037C15.9909 28.6939 15.8445 28.5841 15.7164 28.4926C15.5883 28.4011 15.4419 28.3279 15.2955 28.273C15.1492 28.2181 14.9845 28.1632 14.8198 28.1266C14.6551 28.09 14.4721 28.0717 14.2525 28.0717C13.9597 28.0717 13.7035 28.1266 13.4473 28.2547C13.1911 28.3828 12.9898 28.5292 12.7885 28.7305C12.6056 28.9318 12.4592 29.1697 12.3494 29.4259C12.2396 29.7004 12.1847 29.9749 12.1847 30.2859V30.3042C12.1847 30.6336 12.2396 30.9264 12.3494 31.2009C12.4592 31.4754 12.6056 31.7133 12.7885 31.9146C12.9898 32.1159 13.2094 32.2806 13.4656 32.3904C13.7218 32.5002 14.0146 32.5551 14.344 32.5551C14.9296 32.5551 15.4236 32.4087 15.8262 32.1159V31.0911H14.2525V29.737H17.3451V32.8295C16.9791 33.1406 16.5399 33.4151 16.0458 33.6347C15.5334 33.8726 14.9479 33.9824 14.3074 33.9824Z" fill="#212951"/>
<path d="M18.5922 26.754H20.1659V33.8724H18.5922V26.754Z" fill="#212951"/>
<path d="M23.2764 28.1997H21.1171V26.754H27.0094V28.1997H24.8501V33.8724H23.2764V28.1997Z" fill="#212951"/>
<path d="M30.3228 26.6992H31.7684L34.8244 33.8725H33.1775L32.5187 32.2805H29.4993L28.8406 33.8725H27.2485L30.3228 26.6992ZM31.9697 30.8897L31.0182 28.584L30.0666 30.8897H31.9697Z" fill="#212951"/>
<path d="M35.5922 26.754H37.1659V32.4634H40.716V33.8724H35.5922V26.754Z" fill="#212951"/>
<path d="M44.1554 26.754H46.9369C47.4859 26.754 47.9982 26.8455 48.474 27.0285C48.9315 27.2115 49.3341 27.4494 49.6818 27.7788C50.0112 28.0899 50.2856 28.4742 50.4686 28.895C50.6516 29.3342 50.7431 29.7917 50.7431 30.2858V30.3041C50.7431 30.7982 50.6516 31.2739 50.4686 31.7131C50.2856 32.1523 50.0294 32.5183 49.6818 32.8477C49.3524 33.1588 48.9498 33.415 48.474 33.5979C48.0165 33.7809 47.5042 33.8724 46.9369 33.8724H44.1554V26.754ZM46.9369 32.4451C47.248 32.4451 47.5408 32.3902 47.8152 32.2987C48.0714 32.1889 48.3093 32.0425 48.4923 31.8595C48.6753 31.6765 48.8217 31.4386 48.9315 31.1824C49.0413 30.9263 49.0962 30.6335 49.0962 30.3224V30.3041C49.0962 29.993 49.0413 29.7002 48.9315 29.444C48.8217 29.1878 48.6753 28.9499 48.4923 28.7669C48.3093 28.584 48.0714 28.4376 47.8152 28.3278C47.5591 28.218 47.2663 28.1631 46.9369 28.1631H45.7291V32.4634H46.9369V32.4451Z" fill="#212951"/>
<path d="M54.7494 33.9822C53.7979 33.9822 53.0476 33.726 52.4986 33.1954C51.9497 32.6647 51.6752 31.8778 51.6752 30.8165V26.754H53.2489V30.7799C53.2489 31.3654 53.377 31.8046 53.6515 32.0974C53.926 32.3902 54.292 32.5366 54.786 32.5366C55.2618 32.5366 55.6461 32.3902 55.9206 32.1157C56.1951 31.8229 56.3232 31.402 56.3232 30.8348V26.754H57.8969V30.7799C57.8969 31.3288 57.8237 31.7863 57.6773 32.1889C57.5309 32.5915 57.3296 32.9209 57.0551 33.1954C56.7807 33.4699 56.4513 33.6711 56.067 33.7992C55.6644 33.909 55.2252 33.9822 54.7494 33.9822Z" fill="#212951"/>
<path d="M59.1426 26.754H62.4364C63.2599 26.754 63.8821 26.9553 64.303 27.3762C64.6324 27.7056 64.797 28.1082 64.797 28.584V28.6023C64.797 28.8035 64.7787 28.9865 64.7238 29.1329C64.669 29.2976 64.6141 29.4257 64.5226 29.5538C64.4311 29.6819 64.3396 29.7917 64.2298 29.8832C64.12 29.9747 63.9919 30.0662 63.8638 30.1211C64.2847 30.2858 64.5958 30.4871 64.8336 30.7616C65.0715 31.0361 65.1813 31.402 65.1813 31.8778V31.8961C65.1813 32.2255 65.1264 32.5 64.9983 32.7562C64.8702 32.9941 64.6873 33.1954 64.4677 33.3601C64.2298 33.5247 63.9553 33.6528 63.6259 33.726C63.2965 33.7992 62.9305 33.8541 62.5279 33.8541H59.1426V26.754ZM62.1254 29.627C62.473 29.627 62.7475 29.5721 62.9488 29.444C63.1501 29.3342 63.2599 29.1329 63.2599 28.8767V28.8584C63.2599 28.6206 63.1684 28.4376 63.0037 28.3095C62.8207 28.1814 62.5645 28.1265 62.2352 28.1265H60.6797V29.627H62.1254ZM62.5462 32.5C62.8939 32.5 63.1684 32.4451 63.3514 32.317C63.5527 32.1889 63.6442 31.9876 63.6442 31.7314V31.6948C63.6442 31.4569 63.5527 31.2739 63.3697 31.1275C63.1867 30.9812 62.8939 30.9263 62.4913 30.9263H60.6797V32.5H62.5462Z" fill="#212951"/>
<path d="M68.6031 26.6992H70.0487L73.1047 33.8725H71.4578L70.799 32.2805H67.7796L67.1208 33.8725H65.5288L68.6031 26.6992ZM70.2683 30.8897L69.3168 28.584L68.3652 30.8897H70.2683Z" fill="#212951"/>
<path d="M73.9465 26.754H75.5203V33.8724H73.9465V26.754Z" fill="#212951"/>
<path d="M87.9999 30.4133H80.9364V34H87.9999C97.3874 34 105 26.3875 105 17C105 7.61249 97.3874 0 87.9999 0H69.8654V3.58665H87.9999C95.4111 3.58665 101.432 9.58881 101.432 17.0183C101.432 24.4478 95.4111 30.4133 87.9999 30.4133Z" fill="#2EABE3"/>
<path d="M88.0011 7.09985H76.6007V10.6499H88.0011C91.4963 10.6499 94.3327 13.4863 94.3327 16.9814C94.3327 20.4766 91.4963 23.313 88.0011 23.313H84.4511V13.9804H80.901V26.8813H84.4511H88.0011C93.4543 26.8813 97.8827 22.4529 97.8827 16.9997C97.8827 11.5466 93.4543 7.09985 88.0011 7.09985Z" fill="#2EABE3"/>
</svg>
