<svg width="96" height="34" viewBox="0 0 96 34" fill="none" xmlns="http://www.w3.org/2000/svg">
<g clip-path="url(#clip0_1_4303)">
<path d="M2.06681 27.8114H0.145386V33.3295H2.02023C3.81356 33.3295 4.98971 32.0644 4.98971 30.5463C4.98971 29.0283 3.8485 27.8114 2.06681 27.8114ZM2.07846 32.2451H1.35647V28.9198H2.07846C3.07993 28.9198 3.77863 29.6307 3.77863 30.5825C3.77863 31.5343 3.10322 32.2572 2.07846 32.2451Z" fill="#008755"/>
<path d="M9.25186 31.0403C9.25186 31.8114 8.7977 32.2572 8.16887 32.2572C7.54004 32.2572 7.08589 31.7994 7.08589 31.0403V27.8114H5.86316V31.0885C5.86316 32.4981 6.75982 33.4259 8.14558 33.4259C9.53134 33.4259 10.4513 32.4741 10.4513 31.0524V27.8234H9.25186V31.0403Z" fill="#008755"/>
<path d="M15.0394 30.45C15.4702 30.209 15.7264 29.7512 15.7264 29.2451C15.7264 28.3295 14.9579 27.8114 14.0379 27.8114H11.639V33.3295H14.1777C15.1442 33.3295 15.9593 32.7391 15.9593 31.7873C15.971 31.1849 15.5983 30.6427 15.0394 30.45ZM13.7934 30.0403H12.8618V28.7994H13.7934C14.2708 28.7994 14.5154 29.1006 14.5154 29.4259C14.5154 29.7512 14.2708 30.0403 13.7934 30.0403ZM12.8618 30.968H13.968C14.4455 30.968 14.7599 31.2451 14.7599 31.6668C14.7599 32.0403 14.4804 32.3777 13.968 32.3777H12.8618V30.968Z" fill="#008755"/>
<path d="M19.5808 27.8114H18.393L16.2271 33.3295H17.4964L17.9156 32.1849H19.9884L20.4076 33.3295H21.7351L19.5925 27.8355L19.5808 27.8114ZM19.6507 31.1849H18.2649L18.9636 29.2933L19.6507 31.1849Z" fill="#008755"/>
<path d="M23.6335 27.8114H22.3875V33.3295H23.6335V27.8114Z" fill="#008755"/>
<path d="M29.1181 27.8114H26.8008V33.3295H28.0119V31.5945H29.0716C30.3409 31.5945 31.1094 30.7391 31.1094 29.6789C31.1211 28.5222 30.2594 27.8114 29.1181 27.8114ZM28.0119 28.8837H29.0017C29.5839 28.8837 29.9216 29.2572 29.9216 29.7271C29.9216 30.1969 29.5839 30.5704 29.0017 30.5704H28.0119V28.8837Z" fill="#008755"/>
<path d="M34.568 27.7389C32.9843 27.7389 31.7499 28.9919 31.7499 30.6064C31.7499 32.1967 32.926 33.4256 34.533 33.4256C36.1168 33.4256 37.3511 32.1847 37.3511 30.5702C37.3511 28.9799 36.175 27.7389 34.568 27.7389ZM34.5447 32.269C33.6131 32.269 32.9493 31.5461 32.9493 30.5823C32.9493 29.6425 33.6014 28.9076 34.5447 28.9076C35.453 28.9076 36.14 29.6305 36.14 30.5823C36.14 31.5341 35.4646 32.269 34.5447 32.269Z" fill="#008755"/>
<path d="M49.0662 31.6667C48.7634 32.0643 48.3092 32.2811 47.8318 32.2691C46.9118 32.2691 46.2364 31.5582 46.2364 30.5823C46.2364 29.6064 46.9118 28.9076 47.8318 28.9076C48.2976 28.8956 48.7401 29.1004 49.0429 29.4739L49.0662 29.498L49.9512 28.6787L49.9279 28.6546C49.3922 28.0522 48.6353 27.7269 47.8551 27.739C46.2714 27.739 45.037 28.992 45.037 30.6064C45.037 32.2209 46.2364 33.4257 47.8201 33.4257C48.6353 33.4498 49.4272 33.0884 49.9628 32.4498L49.9861 32.4257L49.1011 31.6426L49.0662 31.6667Z" fill="#008755"/>
<path d="M39.5288 27.8114H38.3177V33.3415H42.114V32.221H39.5288V27.8114Z" fill="#008755"/>
<path d="M44.0588 27.8114H42.8127V33.3295H44.0588V27.8114Z" fill="#008755"/>
<path d="M51.9191 32.2451V31.0162H54.283V29.9801H51.9191V28.9078H54.6557V27.8114H50.708V33.3415H54.7372V32.2451H51.9191Z" fill="#008755"/>
<path d="M29.514 14.4017C29.9565 14.4017 30.3059 14.0282 30.3059 13.5825C30.3059 13.1246 29.9449 12.7632 29.514 12.7632C29.0832 12.7632 28.7222 13.1367 28.7222 13.5825C28.7222 14.0403 29.0832 14.4017 29.514 14.4017Z" fill="#008755"/>
<path d="M50.4053 13.1608C50.8478 13.1608 51.1971 12.7873 51.1971 12.3415C51.1971 11.8837 50.8361 11.5222 50.4053 11.5222C49.9628 11.5222 49.6134 11.8957 49.6134 12.3415C49.6134 12.7993 49.9744 13.1608 50.4053 13.1608Z" fill="#008755"/>
<path d="M49.2989 15.0645C49.7415 15.0645 50.0908 14.691 50.0908 14.2452C50.0908 13.7873 49.7298 13.4259 49.2989 13.4259C48.8564 13.4259 48.5071 13.7994 48.5071 14.2452C48.5071 14.691 48.8681 15.0645 49.2989 15.0645Z" fill="#008755"/>
<path d="M50.7196 14.2451C50.7196 14.7029 51.0806 15.0644 51.5115 15.0644C51.954 15.0644 52.3033 14.6909 52.3033 14.2451C52.3033 13.7873 51.9423 13.4258 51.5115 13.4258C51.069 13.4138 50.7196 13.7873 50.7196 14.2451Z" fill="#008755"/>
<path d="M53.5844 15.2571L52.2452 16.1005C52.5596 16.6306 53.4796 18.486 53.0604 21.1245H51.1855V16.1005H49.6251V21.1245H48.4373V16.1005H46.8769V21.1245H44.6643V15.4378H43.1039V21.8113C43.1039 23.1125 42.0791 24.1727 40.8215 24.1727H40.4255V25.7872H40.8215C42.6032 25.7872 44.1519 24.5221 44.5712 22.727H54.318L54.4578 22.1125C55.2962 18.5583 54.0036 15.9679 53.5844 15.2571Z" fill="#008755"/>
<path d="M19.7439 15.2451L19.0452 16.6909C21.0715 17.7511 21.1996 19.8234 21.0365 21.1126H17.5547V22.727H22.3175L22.4572 22.0885C23.4238 17.5584 20.629 15.7029 19.7439 15.2451Z" fill="#008755"/>
<path d="M41.2639 22.7271L41.6715 21.2813C42.0441 19.9801 41.7996 18.5705 41.0194 17.4741C39.6453 15.5705 37.0368 15.1729 35.1969 16.5825C35.127 16.6428 35.0571 16.703 34.9873 16.7632L33.6131 17.9801V13.5825H32.0527V21.1126H30.2943V15.4379H28.6757C26.5213 15.4379 24.7746 17.2452 24.7629 19.4861V22.7391H26.3234V19.4861C26.3234 18.1488 27.3714 17.0644 28.664 17.0644H28.7106V22.7391L41.2639 22.7271ZM33.6131 20.1126L36.0004 18.0042C37.095 17.0404 38.737 17.1729 39.6686 18.3054C39.7035 18.3536 39.7384 18.4018 39.7734 18.45C40.2624 19.1367 40.4138 20.0163 40.1809 20.8355L40.0994 21.1247H33.6131V20.1126Z" fill="#008755"/>
<path d="M14.9695 23.7631C14.527 23.7631 14.1776 24.1366 14.1776 24.5823C14.1776 25.0402 14.5386 25.4016 14.9695 25.4016C15.412 25.4016 15.7613 25.0281 15.7613 24.5823C15.773 24.1366 15.412 23.7631 14.9695 23.7631Z" fill="#008755"/>
<path d="M6.63158 23.7631C6.18907 23.7631 5.83972 24.1366 5.83972 24.5823C5.83972 25.0281 6.20072 25.4016 6.63158 25.4016C7.07409 25.4016 7.42344 25.0281 7.42344 24.5823C7.42344 24.1366 7.07409 23.7631 6.63158 23.7631Z" fill="#008755"/>
<path d="M4.62877 23.7631C4.18626 23.7631 3.83691 24.1366 3.83691 24.5823C3.83691 25.0281 4.19791 25.4016 4.62877 25.4016C5.07129 25.4016 5.42064 25.0281 5.42064 24.5823C5.43228 24.1366 5.07129 23.7631 4.62877 23.7631Z" fill="#008755"/>
<path d="M27.5694 14.4017C28.012 14.4017 28.3613 14.0282 28.3613 13.5825C28.3613 13.1246 28.0003 12.7632 27.5694 12.7632C27.1269 12.7632 26.7776 13.1367 26.7776 13.5825C26.7776 14.0403 27.1269 14.4017 27.5694 14.4017Z" fill="#008755"/>
<path d="M15.051 20.1246C15.051 20.6668 14.6201 21.1125 14.0961 21.1125H13.3741V15.4378H11.7438C9.63607 15.4378 7.98248 17.2089 7.98248 19.486V21.1246H1.70582V20.9077C1.70582 19.2089 2.10175 17.5342 2.87032 16.0282L1.49621 15.2692C0.611186 16.9921 0.145386 18.9318 0.145386 20.8957V22.727H9.53127V19.474C9.53127 18.0884 10.4745 17.0523 11.7322 17.0523H11.8137V22.727H14.0961C15.4819 22.727 16.6114 21.5583 16.6114 20.1246V15.4378H15.051V20.1246Z" fill="#008755"/>
<path d="M94.8427 19.0241C94.5748 19.0121 94.2953 19.0241 94.0275 19.0723C94.2255 18.8434 94.4001 18.6024 94.5632 18.3494C95.1454 17.4097 95.2968 16.253 94.994 15.1808C94.7262 15.229 94.4584 15.3012 94.2138 15.4097C94.3652 15.1446 94.4817 14.8675 94.5865 14.5904C94.9591 13.5422 94.8776 12.3735 94.3536 11.3976C94.0974 11.5061 93.8528 11.6386 93.6316 11.7952C93.7247 11.5061 93.783 11.2049 93.8295 10.9037C93.9693 9.79522 93.6549 8.67474 92.9562 7.83136C92.7233 7.98799 92.5253 8.16871 92.339 8.37353C92.3739 8.07233 92.3739 7.77112 92.3506 7.46992C92.2691 6.36148 91.7334 5.33739 90.8717 4.66269C90.6854 4.86751 90.5107 5.08437 90.371 5.32534C90.336 5.02413 90.2778 4.72293 90.1963 4.43377C89.8935 3.36148 89.1599 2.48196 88.1817 2.01208C88.042 2.25305 87.9255 2.50606 87.8324 2.77112C87.7392 2.48196 87.6227 2.20486 87.483 1.9398C86.9706 0.951844 86.074 0.253049 85.0143 0.012085C84.8279 0.554254 84.7581 1.14462 84.8163 1.71088C84.6998 1.61449 84.5601 1.53016 84.4204 1.43377C83.5004 0.855458 82.3825 0.71088 81.3577 1.03618C81.5557 2.13257 82.1962 3.09642 83.1278 3.66269C83.2675 3.74702 83.4073 3.83136 83.547 3.8916C83.023 4.09642 82.5572 4.43377 82.1845 4.86751C82.7668 5.5663 83.5586 6.03618 84.4437 6.16871C84.8629 6.96389 85.5499 7.5904 86.3651 7.9157C86.6096 8.78317 87.1569 9.54221 87.8906 10.0362C87.9605 10.9398 88.3331 11.7952 88.9503 12.4458C88.8338 13.3494 89.0201 14.2651 89.4976 15.0362C89.1948 15.8916 89.1948 16.8314 89.5092 17.6868C89.0434 18.4579 88.8571 19.3735 88.9852 20.2771C88.368 20.9277 87.9954 21.7832 87.9372 22.6988C87.2035 23.2049 86.6679 23.9639 86.4233 24.8314C85.6082 25.1687 84.9211 25.7832 84.5135 26.5904C83.6402 26.735 82.8599 27.1928 82.2893 27.8916C81.218 27.8314 80.1816 28.253 79.4363 29.0482C78.9239 29.5784 78.6211 30.1085 78.4698 30.5904C78.33 31.0723 77.8409 31.3494 77.3635 31.2049C77.0724 31.1205 76.8511 30.8796 76.7696 30.5904C76.6182 30.0964 76.3154 29.5784 75.8031 29.0482C75.0578 28.253 74.0214 27.8434 72.95 27.8916C72.3794 27.1928 71.5992 26.735 70.7258 26.5784C70.3066 25.7711 69.6312 25.1567 68.8161 24.8193C68.5715 23.9398 68.0358 23.1928 67.3022 22.6868C67.244 21.7832 66.8713 20.9157 66.2542 20.2651C66.3822 19.3615 66.1959 18.4458 65.7301 17.6747C66.0329 16.8193 66.0445 15.8796 65.7418 15.0241C66.2192 14.253 66.4055 13.3374 66.2891 12.4338C66.9063 11.7832 67.2906 10.9277 67.3488 10.0241C68.0824 9.53016 68.6297 8.77112 68.8743 7.90365C69.7011 7.57835 70.3765 6.96389 70.7957 6.15666C71.6807 6.01208 72.4726 5.55425 73.0548 4.85546C72.6822 4.42172 72.2048 4.09642 71.6924 3.87956C71.8321 3.80727 71.9719 3.73498 72.1116 3.65064C73.0432 3.08437 73.6837 2.13257 73.8816 1.03618C72.8569 0.698832 71.7273 0.84341 70.819 1.43377C70.6793 1.51811 70.5512 1.61449 70.4231 1.71088C70.4813 1.13257 70.4231 0.554254 70.2251 0.012085C69.177 0.253049 68.2687 0.963892 67.7564 1.9398C67.6166 2.20486 67.5002 2.48196 67.407 2.77112C67.3138 2.50606 67.1974 2.25305 67.0577 2.01208C66.0795 2.48196 65.3458 3.36148 65.0431 4.43377C64.9616 4.72293 64.9033 5.02413 64.8684 5.32534C64.7287 5.08437 64.5656 4.85546 64.3677 4.66269C63.5059 5.33739 62.9586 6.36148 62.8887 7.48196C62.8655 7.78317 62.8655 8.08437 62.9004 8.39763C62.7141 8.19281 62.5045 8.01208 62.2716 7.84341C61.5612 8.68678 61.2468 9.80727 61.3982 10.9157C61.4331 11.2169 61.503 11.5181 61.5961 11.8073C61.3749 11.6506 61.1303 11.5181 60.8742 11.4097C60.3501 12.3856 60.2686 13.5543 60.6413 14.6024C60.7344 14.8916 60.8625 15.1687 61.0139 15.4217C60.7577 15.3133 60.5015 15.241 60.2337 15.1928C59.9309 16.2651 60.0823 17.4217 60.6645 18.3615C60.8159 18.6145 61.0022 18.8555 61.2002 19.0844C60.9324 19.0362 60.6529 19.0121 60.3851 19.0362C60.3035 20.1446 60.6878 21.241 61.4448 22.0362C61.6427 22.253 61.8756 22.4579 62.1085 22.6265C61.8407 22.6386 61.5612 22.6747 61.305 22.747C61.4564 23.8555 62.0503 24.8434 62.9586 25.4579C63.2032 25.6265 63.4593 25.7711 63.7272 25.8916C63.4593 25.9639 63.2032 26.0603 62.9703 26.1928C63.3429 27.241 64.1231 28.0844 65.1362 28.482C65.4041 28.5904 65.6952 28.6868 65.9747 28.735C65.7301 28.8555 65.4972 29.0121 65.2876 29.1928C65.8582 30.1326 66.8015 30.7832 67.8728 30.9518C68.1639 31 68.4551 31.0241 68.7462 31.0241C68.5366 31.2049 68.3386 31.3976 68.1639 31.6265C68.9209 32.4338 69.9689 32.8555 71.0519 32.7952C71.343 32.7832 71.6341 32.747 71.9253 32.6747C71.7506 32.8916 71.5992 33.1326 71.4828 33.3856C72.3794 34 73.4973 34.1928 74.5338 33.8916C74.9879 33.7711 75.4188 33.5784 75.8147 33.3012C76.8977 32.5422 78.3184 32.5422 79.4014 33.3012C79.7973 33.5663 80.2282 33.7711 80.6823 33.8916C81.7187 34.1928 82.8366 34 83.7333 33.3856C83.6169 33.1326 83.4655 32.8916 83.2908 32.6747C83.5819 32.747 83.8731 32.7832 84.1642 32.7952C85.2472 32.8555 86.2952 32.4338 87.0521 31.6386C86.8775 31.4217 86.6911 31.2169 86.4699 31.0362C86.761 31.0482 87.0521 31.0241 87.3433 30.9639C88.4146 30.7952 89.3462 30.1446 89.9285 29.2049C89.7188 29.0241 89.4859 28.8675 89.2414 28.747C89.5325 28.6868 89.812 28.6024 90.0798 28.494C91.093 28.0964 91.8732 27.253 92.2458 26.2049C92.0013 26.0723 91.7451 25.9759 91.4889 25.9037C91.7567 25.7832 92.0129 25.6386 92.2575 25.4699C93.1541 24.8555 93.7597 23.8675 93.9111 22.7591C93.6432 22.6868 93.3754 22.6506 93.1075 22.6386C93.3521 22.4579 93.5733 22.2651 93.7713 22.0482C94.5282 21.229 94.9125 20.1326 94.8427 19.0241ZM71.18 27.3735C71.8205 27.6265 72.3561 28.0723 72.7288 28.6747C73.1946 29.4217 73.346 30.0844 73.2295 30.6747C72.6705 30.5422 72.1582 30.1205 71.6924 29.3735C71.3197 28.7711 71.1334 28.0844 71.18 27.3735ZM69.0955 25.6988C69.6661 26.0844 70.097 26.6506 70.3415 27.3133C70.6443 28.1446 70.656 28.8193 70.4347 29.3735C69.9107 29.1205 69.4915 28.5904 69.1887 27.7591C68.9325 27.1085 68.9092 26.3856 69.0955 25.6988ZM67.3954 23.6145C67.8728 24.1085 68.1872 24.7591 68.2804 25.4579C68.4085 26.3374 68.2804 27 67.9427 27.494C67.4885 27.1326 67.1857 26.5302 67.0577 25.6506C66.9528 24.9518 67.0809 24.241 67.3954 23.6145ZM66.161 21.2049C66.5336 21.7952 66.6967 22.494 66.6501 23.2049C66.5919 24.0964 66.3357 24.7109 65.9048 25.1205C65.5322 24.6627 65.3575 24.0121 65.4157 23.1205C65.4623 22.4097 65.7185 21.747 66.161 21.2049ZM63.8436 17.2771C64.158 16.6506 64.6704 16.1567 65.276 15.8555C65.3691 16.5543 65.2527 17.2651 64.9266 17.8796C64.519 18.6627 64.0416 19.1205 63.4943 19.3133C63.3313 18.7229 63.4361 18.0603 63.8436 17.2771ZM63.2264 16.1326C63.1915 15.5302 63.4244 14.9037 63.9834 14.229C64.4259 13.6868 65.0198 13.3133 65.6719 13.1446C65.6253 13.8434 65.3575 14.5181 64.915 15.0482C64.3677 15.7229 63.7971 16.0723 63.2264 16.1326ZM64.3327 20.2771C64.519 19.6024 64.9033 19 65.4506 18.5663C65.6835 19.229 65.7185 19.9518 65.5205 20.6265C65.2876 21.482 64.9033 22.0362 64.4026 22.3374C64.1348 21.8073 64.0998 21.1326 64.3327 20.2771ZM65.4739 12.2892C64.7869 12.8314 64.1697 13.0482 63.5991 12.9759C63.6806 12.3856 64.0416 11.8193 64.7287 11.2771C65.2643 10.8434 65.9281 10.6024 66.6035 10.5904C66.4055 11.2651 66.0213 11.8675 65.4739 12.2892ZM72.1116 4.87956C71.5759 5.31329 70.9122 5.54221 70.2251 5.55425C69.3634 5.5663 68.7462 5.36148 68.3153 4.95184C68.7229 4.53016 69.3401 4.28919 70.2018 4.27715C70.8889 4.2651 71.5643 4.46992 72.1116 4.87956ZM71.1334 2.00004C71.7157 1.62654 72.3911 1.46992 73.0781 1.53016C72.8219 2.18076 72.3561 2.72293 71.7739 3.08437C71.0402 3.54221 70.3998 3.68678 69.8292 3.55425C69.9806 2.97594 70.3881 2.45787 71.1334 2.00004ZM68.3037 2.25305C68.6297 1.62654 69.1421 1.13257 69.7593 0.84341C69.8525 1.54221 69.7127 2.25305 69.3867 2.86751C68.9674 3.65064 68.49 4.09642 67.931 4.27715C67.7913 3.69883 67.8961 3.03618 68.3037 2.25305ZM67.9194 6.19281C68.5832 6.02413 69.2702 6.08437 69.899 6.36148C69.4565 6.90365 68.8626 7.27715 68.1989 7.43377C67.3604 7.63859 66.7083 7.5663 66.2192 7.2651C66.522 6.75907 67.0809 6.39763 67.9194 6.19281ZM65.637 4.62654C65.8349 3.95184 66.2309 3.36148 66.7665 2.9398C66.9994 3.60245 67.0111 4.32534 66.8131 5.00004C66.5686 5.85546 66.1843 6.39763 65.6719 6.69883C65.4157 6.15666 65.3924 5.48197 65.637 4.62654ZM66.0562 8.55425C66.6734 8.241 67.3604 8.15666 68.0358 8.28919C67.7098 8.9157 67.209 9.40968 66.5919 9.71088C65.8116 10.0964 65.1595 10.1687 64.6122 9.97594C64.8102 9.40968 65.276 8.9398 66.0562 8.55425ZM63.5176 7.51811C63.5642 6.81931 63.832 6.14462 64.2861 5.61449C64.6471 6.2169 64.8102 6.9157 64.7519 7.6145C64.6821 8.50606 64.4259 9.12052 63.9834 9.51811C63.6107 9.06028 63.4477 8.40968 63.5176 7.51811ZM62.388 8.79522C62.8655 9.30124 63.1682 9.95184 63.2497 10.6506C63.3662 11.5302 63.2264 12.1928 62.8887 12.6747C62.4346 12.3012 62.1435 11.6988 62.027 10.8193C61.9339 10.1205 62.0619 9.40968 62.388 8.79522ZM61.1769 12.3133C61.7475 12.7109 62.1667 13.2771 62.3996 13.9398C62.6908 14.7832 62.7024 15.4579 62.4579 16C61.9338 15.735 61.5263 15.2049 61.2351 14.3735C61.0022 13.7109 60.9906 12.988 61.1769 12.3133ZM60.7111 16.0121C61.34 16.2771 61.8756 16.735 62.2366 17.3374C62.6908 18.0964 62.8422 18.7591 62.7141 19.3374C62.1551 19.1928 61.6427 18.7711 61.1886 18.0121C60.8276 17.4097 60.6645 16.7109 60.7111 16.0121ZM61.8989 21.5663C61.4215 21.0603 61.1187 20.4097 61.0255 19.7109C61.7009 19.8314 62.3181 20.1687 62.7839 20.6747C63.3778 21.3253 63.6573 21.9277 63.6573 22.5302C63.0751 22.5061 62.4928 22.2049 61.8989 21.5663ZM63.308 24.9037C62.7374 24.5181 62.3065 23.9518 62.0736 23.2892C62.749 23.253 63.4244 23.4579 63.995 23.8434C64.717 24.3374 65.1013 24.8796 65.2294 25.4579C64.6588 25.5663 64.0183 25.3976 63.308 24.9037ZM65.3575 27.8555C64.717 27.6024 64.1813 27.1446 63.8203 26.5422C64.4841 26.3615 65.1712 26.4097 65.8116 26.6747C66.6151 27 67.1042 27.4458 67.3488 27.988C66.8131 28.2169 66.161 28.1808 65.3575 27.8555ZM67.966 30.3012C67.2906 30.1928 66.6734 29.8555 66.1959 29.3494C66.8015 29.0241 67.4885 28.9157 68.1639 29.0362C69.014 29.1808 69.5846 29.5061 69.934 29.988C69.4565 30.3253 68.8161 30.4458 67.966 30.3012ZM71.017 32.1085C70.3415 32.1446 69.6661 31.9518 69.0955 31.5663C69.6196 31.1205 70.2833 30.8675 70.9587 30.8314C71.8205 30.7832 72.4493 30.9759 72.8802 31.3735C72.4842 31.8193 71.8787 32.0723 71.017 32.1085ZM74.3707 33.2169C73.7186 33.3976 73.0199 33.3615 72.3794 33.1085C72.8103 32.5543 73.3925 32.1687 74.0447 31.988C74.8715 31.7591 75.5236 31.8073 76.036 32.0964C75.7448 32.6145 75.1975 33 74.3707 33.2169ZM74.4639 30.3976C73.9748 29.9037 73.6604 29.253 73.5672 28.5543C74.2426 28.6627 74.8598 28.988 75.3373 29.494C75.9428 30.1205 76.2223 30.735 76.2339 31.3374C75.6517 31.3253 75.0694 31.0241 74.4639 30.3976ZM94.4933 16C94.5515 16.6988 94.3769 17.4097 94.0159 18C93.5617 18.7591 93.0493 19.1808 92.4904 19.3253C92.3739 18.735 92.5136 18.0844 92.9678 17.3253C93.3288 16.7229 93.8645 16.253 94.4933 16ZM94.0275 12.3012C94.2255 12.9759 94.2022 13.6988 93.9693 14.3615C93.6782 15.2049 93.2706 15.7229 92.7466 15.988C92.5137 15.4458 92.5137 14.7591 92.8048 13.9277C93.0377 13.2651 93.4569 12.6988 94.0275 12.3012ZM91.9663 10.6506C92.0478 9.95184 92.3506 9.30124 92.8281 8.79522C93.1541 9.40968 93.2822 10.1205 93.1891 10.8193C93.0726 11.6988 92.7815 12.3012 92.3273 12.6747C91.978 12.1928 91.8499 11.5302 91.9663 10.6506ZM90.2895 17.8796C89.9634 17.2651 89.8469 16.5543 89.9401 15.8555C90.5573 16.1567 91.058 16.6627 91.3724 17.2771C91.78 18.0603 91.8732 18.735 91.7218 19.3133C91.1745 19.1205 90.697 18.6627 90.2895 17.8796ZM90.8135 22.3494C90.3127 22.0482 89.9401 21.494 89.6956 20.6386C89.5092 19.9639 89.5325 19.241 89.7654 18.5784C90.3011 19.0121 90.697 19.6024 90.8834 20.2892C91.1163 21.1446 91.093 21.8193 90.8135 22.3494ZM90.3011 15.0603C89.8586 14.5302 89.5908 13.8555 89.5442 13.1567C90.2079 13.3253 90.8018 13.6988 91.2327 14.241C91.7917 14.9157 92.0246 15.5543 91.9896 16.1446C91.419 16.0844 90.8601 15.735 90.3011 15.0603ZM90.9416 5.62654C91.3841 6.15666 91.6519 6.81931 91.7101 7.53016C91.78 8.42172 91.617 9.07233 91.2443 9.53016C90.8135 9.13257 90.5456 8.51811 90.4758 7.62654C90.4176 6.92775 90.5806 6.2169 90.9416 5.62654ZM88.4379 2.92775C88.9852 3.34943 89.3811 3.9398 89.5791 4.61449C89.8237 5.46992 89.8004 6.14462 89.5325 6.67474C89.0318 6.38558 88.6475 5.83136 88.3913 4.97594C88.1933 4.31329 88.2166 3.5904 88.4379 2.92775ZM85.4568 0.84341C86.074 1.13257 86.5863 1.62654 86.9124 2.25305C87.3316 3.03618 87.4364 3.69883 87.285 4.27715C86.7261 4.09642 86.2486 3.65064 85.8294 2.86751C85.4917 2.25305 85.3636 1.54221 85.4568 0.84341ZM83.4422 3.08437C82.8599 2.72293 82.4058 2.18076 82.1379 1.53016C82.8134 1.46992 83.5004 1.62654 84.0827 2.00004C84.8163 2.45787 85.2355 2.97594 85.3869 3.55425C84.8163 3.68678 84.1875 3.55425 83.4422 3.08437ZM84.9793 5.55425C84.3039 5.54221 83.6402 5.31329 83.0928 4.87956C83.6518 4.46992 84.3156 4.2651 84.991 4.27715C85.8527 4.28919 86.4699 4.53016 86.8775 4.95184C86.4582 5.36148 85.8411 5.5663 84.9793 5.55425ZM85.317 6.36148C85.9459 6.08437 86.6329 6.02413 87.2967 6.19281C88.1351 6.39763 88.6824 6.75907 88.9969 7.2651C88.4961 7.5663 87.844 7.63859 87.0172 7.43377C86.3534 7.27715 85.7595 6.90365 85.317 6.36148ZM87.1802 8.28919C87.8556 8.15666 88.5427 8.241 89.1599 8.55425C89.9401 8.9398 90.4059 9.40968 90.6039 9.97594C90.0566 10.1687 89.4044 10.0964 88.6242 9.71088C88.007 9.40968 87.5063 8.9157 87.1802 8.28919ZM88.6126 10.5784C89.288 10.5904 89.9517 10.8314 90.4874 11.2651C91.1745 11.8073 91.5238 12.3735 91.617 12.9639C91.0464 13.0362 90.4176 12.8193 89.7421 12.2771C89.1948 11.8555 88.7989 11.253 88.6126 10.5784ZM89.0551 21.2049C89.4976 21.747 89.7538 22.4097 89.8004 23.1205C89.8586 24.0121 89.6839 24.6627 89.3113 25.1205C88.8804 24.7229 88.6242 24.0964 88.566 23.2049C88.5194 22.494 88.6941 21.7952 89.0551 21.2049ZM86.9357 25.4579C87.0288 24.7591 87.3433 24.1085 87.8207 23.6145C88.1351 24.241 88.2632 24.9518 88.1584 25.6506C88.0303 26.5302 87.7276 27.1326 87.2734 27.494C86.9357 27.0121 86.8076 26.3374 86.9357 25.4579ZM84.8745 27.3133C85.1074 26.6506 85.5499 26.0844 86.1205 25.6988C86.3069 26.3735 86.2719 27.0964 86.039 27.7591C85.7363 28.5904 85.317 29.1085 84.793 29.3735C84.5601 28.8314 84.5718 28.1446 84.8745 27.3133ZM82.4873 28.6747C82.8483 28.0844 83.3956 27.6265 84.0244 27.3735C84.071 28.0723 83.8963 28.7711 83.5237 29.3615C83.0579 30.1085 82.5455 30.5302 81.9866 30.6627C81.8701 30.0844 82.0331 29.4217 82.4873 28.6747ZM79.8788 29.494C80.3563 28.988 80.9734 28.6627 81.6489 28.5543C81.5441 29.253 81.2296 29.8916 80.7522 30.3976C80.1467 31.0362 79.5644 31.3253 78.9821 31.3374C78.9938 30.735 79.2733 30.1326 79.8788 29.494ZM80.857 33.2169C80.0302 32.988 79.4829 32.6145 79.1801 32.0964C79.6808 31.8073 80.333 31.7591 81.1714 31.988C81.8352 32.1687 82.4174 32.5543 82.8366 33.1085C82.2078 33.3615 81.5091 33.4097 80.857 33.2169ZM84.1991 32.1085C83.3374 32.0603 82.7318 31.8073 82.3359 31.3735C82.7668 30.9759 83.3956 30.7832 84.2573 30.8314C84.9327 30.8555 85.5965 31.1205 86.1205 31.5663C85.5616 31.9518 84.8862 32.1446 84.1991 32.1085ZM87.2501 30.2892C86.4 30.4338 85.7595 30.3253 85.2821 29.9759C85.6314 29.494 86.2021 29.1687 87.0521 29.0241C87.7276 28.9037 88.4146 29.0121 89.0201 29.3374C88.5427 29.8555 87.9255 30.1808 87.2501 30.2892ZM89.8586 27.8555C89.0551 28.1808 88.403 28.2169 87.8673 27.988C88.1118 27.4458 88.6009 27 89.4044 26.6747C90.0333 26.4097 90.732 26.3615 91.3957 26.5422C91.0347 27.1446 90.4991 27.6024 89.8586 27.8555ZM93.1425 23.2892C92.9096 23.9518 92.4787 24.5181 91.9081 24.9037C91.1861 25.3976 90.5573 25.5663 89.9867 25.4579C90.1148 24.8675 90.4991 24.3374 91.2211 23.8434C91.7917 23.4458 92.4671 23.253 93.1425 23.2892ZM91.5588 22.5302C91.5588 21.9277 91.8382 21.3133 92.4321 20.6747C92.8979 20.1687 93.5151 19.8314 94.1905 19.7109C94.0974 20.4097 93.7946 21.0603 93.3172 21.5663C92.7233 22.2049 92.141 22.5181 91.5588 22.5302Z" fill="#008755"/>
<path d="M67.8728 18.3736V18.8314C68.4318 19.9519 69.0606 21.0242 69.7593 22.0603H68.1989C68.1989 22.0603 68.5133 22.723 69.4682 22.723H85.7595C86.7261 22.723 87.0288 22.0603 87.0288 22.0603H85.5965C86.3185 20.9519 86.9823 19.7953 87.5645 18.6025H88.3447V17.3374H84.106C79.6459 13.5904 78.691 7.1808 81.2879 2.38562C73.8467 3.90369 68.2687 10.5784 67.8728 18.3736ZM68.1989 18.3856C70.3998 16.976 72.9151 16.1687 75.5003 16.0121V18.3856H68.1989ZM83.7217 17.8675L83.349 18.3856H76.5018V15.988C79.0287 16.0001 81.4975 16.6507 83.7217 17.8675ZM82.3243 16.47C77.8409 14.6627 72.8219 14.988 68.6064 17.3736C69.3983 10.735 73.9166 5.22899 80.1234 3.34948C78.3533 7.79526 79.215 12.9037 82.3243 16.47Z" fill="#008755"/>
<path d="M76.8861 28.3133H78.33C79.2966 28.3133 79.5993 27.6506 79.5993 27.6506H75.6051C75.6167 27.6506 75.9195 28.3133 76.8861 28.3133Z" fill="#008755"/>
<path d="M82.5105 26.2531H72.7054C72.7054 26.2531 73.0199 26.9157 73.9748 26.9157H81.2296C82.1961 26.9157 82.5105 26.2531 82.5105 26.2531Z" fill="#008755"/>
<path d="M84.7231 24.8555H70.4929C70.4929 24.8555 70.8073 25.5181 71.7622 25.5181H83.4422C84.4204 25.5181 84.7231 24.8555 84.7231 24.8555Z" fill="#008755"/>
<path d="M86.0739 23.4579H69.1421C69.1421 23.4579 69.4565 24.1205 70.4114 24.1205H84.8046C85.7712 24.1205 86.0739 23.4579 86.0739 23.4579Z" fill="#008755"/>
</g>
<defs>
<clipPath id="clip0_1_4303">
<rect width="95" height="34" fill="white" transform="translate(0.145386)"/>
</clipPath>
</defs>
</svg>
