<svg width="136" height="44" viewBox="0 0 136 44" fill="none" xmlns="http://www.w3.org/2000/svg">
<path d="M8.73843 26.0491H6.84392C5.75457 26.0491 5.02045 25.5045 4.57051 24.3914C4.23897 24.9124 3.57589 25.1966 2.65231 25.1966C1.04198 25.1966 0 23.7994 0 21.9286C0 19.9157 1.0183 18.6132 2.7944 18.6132C2.7944 18.5895 4.00215 18.5895 6.39397 18.5895V22.8285C6.39397 23.7284 6.84392 24.202 7.76749 24.202H8.73843V26.0491ZM3.19699 17.3581H1.51561V15.7951H3.19699V17.3581ZM4.4521 21.7865V20.0104H3.22067C2.46286 20.0104 1.89451 20.8629 1.89451 21.9049C1.89451 22.8522 2.43918 23.6336 3.19699 23.6336C3.97847 23.6336 4.4521 22.8995 4.4521 21.7865ZM5.73089 17.3581H4.04952V15.7951H5.73089V17.3581Z" fill="white"/>
<path d="M11.2722 26.0487H8.38306V24.2489H11.2722V26.0487Z" fill="white"/>
<path d="M12.4338 28.2987H10.7524V26.7358H12.4338V28.2987ZM17.1464 26.049H11.084V24.2492H12.3154C12.9548 24.2492 13.2627 23.823 13.2627 22.9467V19.9392H15.1572V22.8757C15.1572 23.373 15.0861 23.823 14.944 24.2492H17.1464V26.049ZM14.9677 28.2987H13.2863V26.7358H14.9677V28.2987Z" fill="white"/>
<path d="M26.0973 26.0488H23.9423C23.3976 26.8066 22.5451 27.2092 21.4321 27.2092C20.2954 27.2092 19.4428 26.8066 18.8745 26.0488H16.7905V24.249H18.3061C18.3061 22.3071 19.4192 21.0994 21.361 21.0994C23.3266 21.0994 24.5107 22.2834 24.5107 24.249H26.0973V26.0488ZM22.6398 24.2016C22.6398 23.136 22.2372 22.5913 21.4321 22.5913H21.29C20.6032 22.5913 20.1533 23.2307 20.1533 24.1069C20.1533 25.0068 20.6032 25.6462 21.4084 25.6462C22.1662 25.6699 22.6398 25.1015 22.6398 24.2016Z" fill="white"/>
<path d="M33.6039 22.9703C33.6039 23.8939 33.3197 24.628 32.7514 25.1964C32.2067 25.7647 31.4489 26.0489 30.5017 26.0489H25.6707V24.2491H27.5888C27.4468 23.8465 27.3757 23.444 27.3757 22.994C27.3757 21.1232 28.5598 19.9391 30.4306 19.9391C31.3779 19.9391 32.1357 20.1996 32.7277 20.7443C33.3197 21.2653 33.6039 22.0231 33.6039 22.9703ZM29.9807 18.9208H28.2993V17.3815H29.9807V18.9208ZM31.7331 23.0414C31.7331 21.9757 31.3305 21.4547 30.5253 21.4547H30.3832C30.0043 21.4547 29.7202 21.6205 29.4834 21.952C29.3176 22.2362 29.2229 22.5914 29.2229 22.9703C29.2229 23.4203 29.3176 23.7755 29.5307 24.0597C29.7675 24.3912 30.0754 24.557 30.5017 24.557C30.9042 24.557 31.2121 24.4149 31.4252 24.107C31.6384 23.7755 31.7331 23.444 31.7331 23.0414ZM32.5146 18.9208H30.8332V17.3815H32.5146V18.9208Z" fill="white"/>
<path d="M40.4243 26.049H38.3403C38.0324 27.5409 36.8247 28.2751 34.6697 28.2751V26.7594C35.9011 26.7594 36.5405 26.1674 36.5405 24.9833V19.9392H38.435V24.2492H40.4243V26.049Z" fill="white"/>
<path d="M43.9543 23.4446C43.9543 24.1551 43.7412 24.7471 43.3623 25.2207C42.9123 25.7654 42.2966 26.0496 41.4914 26.0496H39.7153V24.2498H41.1125C41.7519 24.2498 42.0598 23.7999 42.0598 22.9236V17.3585H43.9543V23.4446Z" fill="white"/>
<path d="M47.1489 26.0496H45.2544V17.3585H47.1489V26.0496Z" fill="white"/>
<path d="M61.6908 26.0493H61.5961C60.5067 26.0493 59.7016 25.7888 59.1569 25.2442C58.7306 27.0676 56.8124 28.2754 54.6337 28.2754C51.9341 28.2754 49.8027 26.2861 49.8027 23.6812V22.0709H51.6972V23.5154C51.6972 25.3152 52.7629 26.5466 54.6811 26.5466C56.1493 26.5466 57.5229 25.6231 57.5229 24.3679C57.5229 23.6575 56.9071 23.1839 56.2678 23.1839C56.1493 23.1839 56.0546 23.2076 55.9362 23.2312V21.5972C55.9362 21.5735 56.1967 21.5735 56.7651 21.5735C58.1386 21.5735 59.1332 22.1893 59.7963 23.4444C60.1278 24.0601 60.6014 24.2732 61.4066 24.2732H61.7145V26.0493H61.6908ZM54.4206 31.0935H52.7392V29.5542H54.4206V31.0935ZM56.9545 31.0935H55.2731V29.5542H56.9545V31.0935Z" fill="white"/>
<path d="M64.4162 26.0487H61.5271V24.2489H64.4162V26.0487Z" fill="white"/>
<path d="M67.0886 26.0487H64.1995V24.2489H67.0886V26.0487Z" fill="white"/>
<path d="M69.7444 26.0487H66.8552V24.2489H69.7444V26.0487Z" fill="white"/>
<path d="M72.4167 26.0487H69.5276V24.2489H72.4167V26.0487Z" fill="white"/>
<path d="M75.093 26.0487H72.2039V24.2489H75.093V26.0487Z" fill="white"/>
<path d="M77.7693 26.0487H74.8801V24.2489H77.7693V26.0487Z" fill="white"/>
<path d="M80.4211 26.0487H77.532V24.2489H80.4211V26.0487Z" fill="white"/>
<path d="M83.0974 26.0487H80.2083V24.2489H83.0974V26.0487Z" fill="white"/>
<path d="M85.7739 26.0487H82.8848V24.2489H85.7739V26.0487Z" fill="white"/>
<path d="M89.5859 23.4441C89.5859 24.1545 89.3728 24.7465 88.9939 25.2202C88.5439 25.7648 87.9282 26.049 87.1467 26.049H85.5364V24.2492H86.7441C87.3835 24.2492 87.6914 23.7993 87.6914 22.9231V19.9392H89.5859V23.4441ZM89.4912 28.2987H87.8098V26.7358H89.4912V28.2987Z" fill="white"/>
<path d="M97.5678 26.049H90.7949V24.2492H95.697C95.697 22.3547 94.6787 21.5259 92.2632 21.5259V19.9392C93.4472 19.9392 94.2761 20.0103 94.7734 20.1997C96.5969 20.8391 97.5678 22.1889 97.5678 24.2255V26.049Z" fill="white"/>
<path d="M0 34.6229H3.59957C4.31001 34.6229 4.97309 34.7413 5.5888 34.9781C6.18084 35.215 6.70183 35.5228 7.15177 35.9491C7.57804 36.3517 7.93326 36.849 8.17007 37.3936C8.40689 37.962 8.5253 38.554 8.5253 39.1934V39.2171C8.5253 39.8565 8.40689 40.4722 8.17007 41.0406C7.93326 41.6089 7.60172 42.0826 7.15177 42.5088C6.72551 42.9114 6.20452 43.2429 5.5888 43.4798C4.99677 43.7166 4.33369 43.835 3.59957 43.835H0V34.6229ZM3.59957 41.9878C4.00215 41.9878 4.38105 41.9168 4.73628 41.7984C5.06781 41.6563 5.37567 41.4668 5.61249 41.23C5.8493 40.9932 6.03875 40.6854 6.18084 40.3538C6.32293 40.0223 6.39397 39.6434 6.39397 39.2408V39.2171C6.39397 38.8145 6.32293 38.4356 6.18084 38.1041C6.03875 37.7725 5.8493 37.4647 5.61249 37.2279C5.37567 36.9911 5.06781 36.8016 4.73628 36.6595C4.40474 36.5174 4.02583 36.4464 3.59957 36.4464H2.0366V42.0115H3.59957V41.9878Z" fill="white"/>
<path d="M9.96875 34.6229H12.0053V43.835H9.96875V34.6229Z" fill="white"/>
<path d="M18.3273 43.9771C17.6169 43.9771 16.9538 43.8587 16.3618 43.6218C15.7697 43.385 15.2488 43.0535 14.8462 42.6272C14.4199 42.201 14.0884 41.7037 13.8516 41.1353C13.6147 40.5669 13.4963 39.9275 13.4963 39.2408V39.2171C13.4963 38.554 13.6147 37.9383 13.8516 37.37C14.0884 36.8016 14.4199 36.2806 14.8699 35.8544C15.2961 35.4281 15.8171 35.0729 16.3855 34.8361C16.9775 34.5756 17.6169 34.4572 18.3273 34.4572C18.7299 34.4572 19.1088 34.4808 19.464 34.5519C19.7956 34.5992 20.1271 34.694 20.4113 34.7887C20.6955 34.8834 20.9797 35.0255 21.2165 35.1913C21.477 35.357 21.7138 35.5228 21.9506 35.7359L20.6718 37.2752C20.506 37.1331 20.3166 36.9911 20.1508 36.8727C19.985 36.7542 19.7956 36.6595 19.6061 36.5885C19.4167 36.5174 19.2036 36.4464 18.9904 36.399C18.7773 36.3517 18.5405 36.328 18.2563 36.328C17.8774 36.328 17.5459 36.399 17.2143 36.5648C16.8828 36.7306 16.6223 36.92 16.3618 37.1805C16.125 37.441 15.9355 37.7489 15.7934 38.0804C15.6513 38.4356 15.5803 38.7908 15.5803 39.1934V39.2171C15.5803 39.6434 15.6513 40.0223 15.7934 40.3775C15.9355 40.7327 16.125 41.0406 16.3618 41.3011C16.6223 41.5616 16.9065 41.7747 17.238 41.9168C17.5695 42.0589 17.9484 42.1299 18.3747 42.1299C19.1325 42.1299 19.7719 41.9405 20.2929 41.5616V40.2354H18.2563V38.483H22.2584V42.4851C21.7848 42.8877 21.2165 43.2429 20.5771 43.5271C19.914 43.835 19.1562 43.9771 18.3273 43.9771Z" fill="white"/>
<path d="M23.8723 34.6229H25.9089V43.835H23.8723V34.6229Z" fill="white"/>
<path d="M29.9343 36.4938H27.1399V34.6229H34.7653V36.4938H31.9709V43.835H29.9343V36.4938Z" fill="white"/>
<path d="M39.0532 34.5518H40.924L44.8788 43.8349H42.7475L41.8949 41.7746H37.9875L37.135 43.8349H35.0747L39.0532 34.5518ZM41.1845 39.9749L39.9531 36.991L38.7216 39.9749H41.1845Z" fill="white"/>
<path d="M45.8723 34.6229H47.9089V42.0115H52.5031V43.835H45.8723V34.6229Z" fill="white"/>
<path d="M56.9541 34.6229H60.5537C61.2641 34.6229 61.9272 34.7413 62.5429 34.9781C63.1349 35.215 63.6559 35.5228 64.1059 35.9491C64.5321 36.3517 64.8874 36.849 65.1242 37.3936C65.361 37.962 65.4794 38.554 65.4794 39.1934V39.2171C65.4794 39.8565 65.361 40.4722 65.1242 41.0406C64.8874 41.6089 64.5558 42.0826 64.1059 42.5088C63.6796 42.9114 63.1586 43.2429 62.5429 43.4798C61.9509 43.7166 61.2878 43.835 60.5537 43.835H56.9541V34.6229ZM60.5537 41.9878C60.9562 41.9878 61.3352 41.9168 61.6904 41.7984C62.0219 41.6563 62.3298 41.4668 62.5666 41.23C62.8034 40.9932 62.9929 40.6854 63.1349 40.3538C63.277 40.0223 63.3481 39.6434 63.3481 39.2408V39.2171C63.3481 38.8145 63.277 38.4356 63.1349 38.1041C62.9929 37.7725 62.8034 37.4647 62.5666 37.2279C62.3298 36.9911 62.0219 36.8016 61.6904 36.6595C61.3588 36.5174 60.9799 36.4464 60.5537 36.4464H58.9907V42.0115H60.5537V41.9878Z" fill="white"/>
<path d="M70.664 43.9771C69.4326 43.9771 68.4617 43.6455 67.7512 42.9588C67.0408 42.272 66.6855 41.2537 66.6855 39.8802V34.6229H68.7221V39.8328C68.7221 40.5906 68.8879 41.159 69.2431 41.5379C69.5984 41.9168 70.072 42.1062 70.7114 42.1062C71.3271 42.1062 71.8244 41.9168 72.1796 41.5616C72.5348 41.1827 72.7006 40.638 72.7006 39.9039V34.6229H74.7372V39.8328C74.7372 40.5433 74.6425 41.1353 74.453 41.6563C74.2636 42.1773 74.0031 42.6035 73.6479 42.9588C73.2926 43.314 72.8664 43.5745 72.3691 43.7403C71.8481 43.8823 71.2797 43.9771 70.664 43.9771Z" fill="white"/>
<path d="M76.3494 34.6229H80.612C81.6777 34.6229 82.4828 34.8834 83.0275 35.4281C83.4538 35.8544 83.6669 36.3753 83.6669 36.9911V37.0147C83.6669 37.2752 83.6432 37.5121 83.5722 37.7015C83.5011 37.9146 83.4301 38.0804 83.3117 38.2462C83.1933 38.4119 83.0749 38.554 82.9328 38.6724C82.7907 38.7908 82.6249 38.9093 82.4592 38.9803C83.0038 39.1934 83.4064 39.4539 83.7143 39.8091C84.0221 40.1644 84.1642 40.638 84.1642 41.2537V41.2774C84.1642 41.7037 84.0932 42.0589 83.9274 42.3904C83.7616 42.6983 83.5248 42.9588 83.2406 43.1719C82.9328 43.385 82.5776 43.5508 82.1513 43.6455C81.725 43.7403 81.2514 43.8113 80.7304 43.8113H76.3494V34.6229ZM80.2094 38.3409C80.6594 38.3409 81.0146 38.2699 81.2751 38.1041C81.5356 37.962 81.6777 37.7015 81.6777 37.37V37.3463C81.6777 37.0384 81.5593 36.8016 81.3461 36.6358C81.1093 36.4701 80.7778 36.399 80.3515 36.399H78.3386V38.3409H80.2094ZM80.7541 42.0589C81.204 42.0589 81.5593 41.9878 81.7961 41.8221C82.0566 41.6563 82.175 41.3958 82.175 41.0643V41.0169C82.175 40.709 82.0566 40.4722 81.8198 40.2828C81.583 40.0933 81.204 40.0223 80.6831 40.0223H78.3386V42.0589H80.7541Z" fill="white"/>
<path d="M88.5922 34.5518H90.4631L94.4179 43.8349H92.2865L91.434 41.7746H87.5266L86.6741 43.8349H84.6138L88.5922 34.5518ZM90.7472 39.9749L89.5158 36.991L88.2844 39.9749H90.7472Z" fill="white"/>
<path d="M95.5073 34.6229H97.5439V43.835H95.5073V34.6229Z" fill="white"/>
<path d="M113.694 39.3584H104.553V44H113.694C125.843 44 135.694 34.1485 135.694 22C135.694 9.85145 125.843 0 113.694 0H90.2258V4.64155H113.694C123.285 4.64155 131.076 12.409 131.076 22.0237C131.076 31.6383 123.285 39.3584 113.694 39.3584Z" fill="white"/>
<path d="M113.696 9.18817H98.9424V13.7824H113.696C118.219 13.7824 121.89 17.453 121.89 21.9761C121.89 26.4993 118.219 30.1699 113.696 30.1699H109.102V18.0924H104.508V34.7877H109.102H113.696C120.753 34.7877 126.484 29.0568 126.484 21.9998C126.484 14.9427 120.753 9.18817 113.696 9.18817Z" fill="white"/>
</svg>
